<?xml version="1.0" encoding="utf-8" standalone="no"?>
<!DOCTYPE svg PUBLIC "-//W3C//DTD SVG 1.1//EN"
  "http://www.w3.org/Graphics/SVG/1.1/DTD/svg11.dtd">
<svg xmlns:xlink="http://www.w3.org/1999/xlink" width="460.8pt" height="345.6pt" viewBox="0 0 460.8 345.6" xmlns="http://www.w3.org/2000/svg" version="1.1">
 <metadata>
  <rdf:RDF xmlns:dc="http://purl.org/dc/elements/1.1/" xmlns:cc="http://creativecommons.org/ns#" xmlns:rdf="http://www.w3.org/1999/02/22-rdf-syntax-ns#">
   <cc:Work>
    <dc:type rdf:resource="http://purl.org/dc/dcmitype/StillImage"/>
    <dc:date>2025-09-29T12:09:30.741751</dc:date>
    <dc:format>image/svg+xml</dc:format>
    <dc:creator>
     <cc:Agent>
      <dc:title>Matplotlib v3.6.3, https://matplotlib.org/</dc:title>
     </cc:Agent>
    </dc:creator>
   </cc:Work>
  </rdf:RDF>
 </metadata>
 <defs>
  <style type="text/css">*{stroke-linejoin: round; stroke-linecap: butt}</style>
 </defs>
 <g id="figure_1">
  <g id="patch_1">
   <path d="M 0 345.6 
L 460.8 345.6 
L 460.8 0 
L 0 0 
L 0 345.6 
z
" style="fill: none"/>
  </g>
  <g id="axes_1">
   <g id="line2d_1">
    <path d="M 73.832727 118.773626 
L 74.206089 115.785278 
L 74.44147 115.198519 
L 74.555102 115.279341 
L 74.717433 115.805483 
L 74.96093 117.490519 
L 75.301826 121.597704 
L 75.76447 130.181724 
L 76.397562 146.574505 
L 77.477066 181.480265 
L 78.670201 217.734196 
L 79.31141 231.039091 
L 79.774054 236.63313 
L 80.0906 238.295082 
L 80.244815 238.44534 
L 80.269165 238.429331 
L 80.39903 238.161118 
L 80.601944 237.129048 
L 80.902257 234.257517 
L 81.308085 227.962931 
L 81.851895 215.70189 
L 82.639202 192.307906 
L 84.611528 131.76543 
L 85.204037 120.757843 
L 85.626098 116.402512 
L 85.910178 115.253775 
L 86.031927 115.211574 
L 86.056276 115.235663 
L 86.194258 115.576665 
L 86.413405 116.827952 
L 86.729952 120.136707 
L 87.16013 127.304485 
L 87.736406 141.064738 
L 88.604878 167.897113 
L 90.244425 218.820118 
L 90.8694 231.502357 
L 91.323928 236.815822 
L 91.632358 238.331857 
L 91.770339 238.444927 
L 91.794689 238.428392 
L 91.924554 238.155441 
L 92.127468 237.109165 
L 92.427781 234.200535 
L 92.83361 227.824536 
L 93.37742 215.40197 
L 94.164726 191.704322 
L 96.096469 131.724966 
L 96.680862 120.71657 
L 97.102924 116.334713 
L 97.378887 115.243358 
L 97.492519 115.21282 
L 97.516868 115.238221 
L 97.65485 115.594994 
L 97.873997 116.901107 
L 98.190543 120.354578 
L 98.620722 127.838976 
L 99.196998 142.204486 
L 100.081703 170.683557 
L 101.591385 219.013945 
L 102.208244 231.899228 
L 102.638422 236.975204 
L 102.930618 238.368239 
L 103.052367 238.440246 
L 103.076717 238.418471 
L 103.206582 238.098535 
L 103.417612 236.849437 
L 103.717925 233.544543 
L 104.13187 226.20985 
L 104.691913 211.841628 
L 105.544153 183.390556 
L 107.029484 134.025284 
L 107.621994 121.383781 
L 108.044055 116.437565 
L 108.320019 115.237166 
L 108.417417 115.209464 
L 108.449884 115.246398 
L 108.587865 115.660739 
L 108.807013 117.169595 
L 109.123559 121.144875 
L 109.553737 129.711148 
L 110.146246 146.485095 
L 111.17705 183.313849 
L 112.256553 219.145617 
L 112.849063 232.166514 
L 113.263008 237.160343 
L 113.538971 238.40636 
L 113.63637 238.436734 
L 113.668836 238.399186 
L 113.806818 237.974107 
L 114.025965 236.422698 
L 114.342511 232.337842 
L 114.772689 223.555441 
L 115.373315 206.16305 
L 116.477168 166.144007 
L 117.467389 133.663933 
L 118.043665 121.189554 
L 118.449494 116.400043 
L 118.71734 115.233753 
L 118.814739 115.213204 
L 118.839089 115.24181 
L 118.97707 115.658353 
L 119.196218 117.20138 
L 119.512764 121.283469 
L 119.942942 130.074288 
L 120.543568 147.487366 
L 121.655537 187.820933 
L 122.645759 220.194802 
L 123.222035 232.571687 
L 123.627863 237.293151 
L 123.89571 238.419678 
L 123.984992 238.434892 
L 124.017458 238.395632 
L 124.15544 237.96286 
L 124.374587 236.398722 
L 124.691133 232.29748 
L 125.121311 223.503884 
L 125.721937 206.129918 
L 126.833907 165.944024 
L 127.824128 133.649969 
L 128.400404 121.23733 
L 128.814349 116.382488 
L 129.082196 115.233113 
L 129.179595 115.213001 
L 129.203944 115.241221 
L 129.341926 115.651772 
L 129.561073 117.171819 
L 129.877619 121.191816 
L 130.307797 129.848247 
L 130.908423 147.004805 
L 131.987927 185.686772 
L 133.018731 219.434539 
L 133.603123 232.133742 
L 134.025185 237.17617 
L 134.301148 238.405146 
L 134.398547 238.43823 
L 134.431013 238.40266 
L 134.568995 237.992168 
L 134.788142 236.485077 
L 135.104688 232.510745 
L 135.534866 223.961596 
L 136.127376 207.274857 
L 137.174413 170.182897 
L 138.253916 134.773096 
L 138.854542 121.673975 
L 139.276603 116.573309 
L 139.560683 115.252898 
L 139.666199 115.207189 
L 139.698665 115.241751 
L 139.836646 115.643328 
L 140.055794 117.121046 
L 140.37234 121.02169 
L 140.802518 129.419932 
L 141.395027 145.837529 
L 142.417715 181.603927 
L 143.545917 218.519476 
L 144.146543 231.656181 
L 144.576721 236.952472 
L 144.868918 238.376017 
L 144.98255 238.440972 
L 145.015016 238.40908 
L 145.152998 238.023954 
L 145.372145 236.588993 
L 145.688691 232.783807 
L 146.118869 224.568781 
L 146.711378 208.464562 
L 147.709716 174.063248 
L 148.894735 135.429364 
L 149.503477 122.149796 
L 149.941772 116.74266 
L 150.233968 115.287343 
L 150.355717 115.203573 
L 150.388183 115.233364 
L 150.518048 115.571582 
L 150.729079 116.86282 
L 151.037508 120.358564 
L 151.45957 128.031067 
L 152.035846 143.07348 
L 152.953018 173.829967 
L 154.300368 217.90786 
L 154.917227 231.332158 
L 155.355522 236.786508 
L 155.655835 238.339505 
L 155.7857 238.443855 
L 155.810049 238.425117 
L 155.939914 238.121242 
L 156.142829 236.96356 
L 156.443142 233.758106 
L 156.857087 226.599238 
L 157.41713 212.568519 
L 158.269369 184.82104 
L 159.8034 134.92176 
L 160.412143 122.029685 
L 160.850437 116.752073 
L 161.15075 115.285026 
L 161.272499 115.202934 
L 161.304965 115.231209 
L 161.442947 115.586576 
L 161.662094 116.927436 
L 161.97864 120.501779 
L 162.408818 128.251729 
L 162.993211 143.29826 
L 163.918499 173.79961 
L 165.290199 217.910111 
L 165.915175 231.298571 
L 166.361586 236.778041 
L 166.661899 238.326961 
L 166.799881 238.443728 
L 166.82423 238.425253 
L 166.954095 238.128988 
L 167.165126 236.942016 
L 167.465439 233.781579 
L 167.879384 226.761957 
L 168.439427 213.022714 
L 169.28355 186.060534 
L 170.89063 134.469956 
L 171.499373 121.858625 
L 171.937667 116.705535 
L 172.229864 115.295088 
L 172.359729 115.203851 
L 172.384078 115.223613 
L 172.513943 115.525395 
L 172.724974 116.716625 
L 173.025287 119.873854 
L 173.439232 126.874185 
L 173.999275 140.569538 
L 174.843398 167.460293 
L 176.458595 219.242609 
L 177.067337 231.826 
L 177.505632 236.959647 
L 177.797828 238.356069 
L 177.919577 238.444977 
L 177.952043 238.419465 
L 178.081908 238.110402 
L 178.292939 236.906234 
L 178.601368 233.618704 
L 179.015313 226.525622 
L 179.575356 212.708725 
L 180.427596 185.386459 
L 182.010326 134.495437 
L 182.619069 121.833618 
L 183.057363 116.676096 
L 183.34956 115.284379 
L 183.471308 115.202857 
L 183.503775 115.230896 
L 183.641756 115.583644 
L 183.860903 116.915945 
L 184.169333 120.357651 
L 184.591394 127.849607 
L 185.167671 142.519538 
L 186.060493 171.821482 
L 187.505242 218.579665 
L 188.122101 231.683516 
L 188.560395 236.942544 
L 188.852592 238.360802 
L 188.97434 238.442674 
L 189.006807 238.413634 
L 189.144788 238.051451 
L 189.363936 236.686912 
L 189.680482 233.047679 
L 190.11066 225.147891 
L 190.695052 209.792678 
L 191.628458 178.390173 
L 192.943341 135.440568 
L 193.5602 122.055133 
L 193.998495 116.69958 
L 194.290691 115.276464 
L 194.404323 115.202375 
L 194.43679 115.230806 
L 194.566655 115.564828 
L 194.777685 116.854818 
L 195.086115 120.365826 
L 195.50006 127.923812 
L 196.06822 142.834129 
L 196.961042 173.067643 
L 198.332742 218.618193 
L 198.941484 231.858034 
L 199.371662 237.058639 
L 199.655742 238.387674 
L 199.761257 238.441416 
L 199.793724 238.40976 
L 199.923589 238.056572 
L 200.134619 236.714551 
L 200.443049 233.084164 
L 200.86511 225.114788 
L 201.441387 209.496258 
L 202.374792 177.101723 
L 203.63286 135.07613 
L 204.233485 121.834957 
L 204.655547 116.63533 
L 204.939627 115.263424 
L 205.045142 115.203466 
L 205.077608 115.234267 
L 205.207473 115.588975 
L 205.418504 116.949933 
L 205.726934 120.642257 
L 206.148995 128.751824 
L 206.725271 144.6267 
L 207.67491 178.020869 
L 208.884278 218.615382 
L 209.484904 231.914556 
L 209.906965 237.083311 
L 210.182929 238.387849 
L 210.288444 238.44013 
L 210.32091 238.406297 
L 210.458892 238.00084 
L 210.678039 236.493127 
L 210.994585 232.496827 
L 211.424763 223.874657 
L 212.017273 207.011378 
L 213.06431 169.513314 
L 214.12758 134.372337 
L 214.720089 121.427612 
L 215.134034 116.472342 
L 215.409998 115.238685 
L 215.507396 115.209515 
L 215.539863 115.24707 
L 215.677844 115.669899 
L 215.896992 117.209874 
L 216.213538 121.260775 
L 216.643716 129.965678 
L 217.244342 147.204448 
L 218.331962 186.342562 
L 219.346532 219.61105 
L 219.930925 232.297911 
L 220.34487 237.211804 
L 220.620833 238.414255 
L 220.718232 238.432064 
L 220.742582 238.403259 
L 220.880563 237.989269 
L 221.099711 236.463034 
L 221.416257 232.431526 
L 221.846435 223.752478 
L 222.438944 206.812704 
L 223.502214 168.654198 
L 224.549252 134.186895 
L 225.133644 121.45681 
L 225.547589 116.490424 
L 225.823552 115.242793 
L 225.920951 115.207182 
L 225.953418 115.242403 
L 226.091399 115.654231 
L 226.310546 117.173011 
L 226.627093 121.18504 
L 227.057271 129.822299 
L 227.64978 146.683126 
L 228.71305 184.697569 
L 229.768204 219.36095 
L 230.360713 232.224028 
L 230.774658 237.158886 
L 231.050621 238.402146 
L 231.14802 238.439656 
L 231.180486 238.405475 
L 231.318468 238.000346 
L 231.537615 236.499748 
L 231.854161 232.529675 
L 232.284339 223.975377 
L 232.876849 207.260933 
L 233.923886 170.084784 
L 235.003389 134.623151 
L 235.595899 121.684853 
L 236.01796 116.567483 
L 236.30204 115.250147 
L 236.407555 115.208769 
L 236.440022 115.245018 
L 236.578003 115.655636 
L 236.79715 117.153904 
L 237.113697 121.097111 
L 237.543875 129.574446 
L 238.136384 146.126944 
L 239.167188 182.40537 
L 240.271041 218.610291 
L 240.871667 231.766217 
L 241.301845 237.023871 
L 241.585925 238.380611 
L 241.69144 238.443827 
L 241.723906 238.415069 
L 241.853771 238.07361 
L 242.064802 236.75212 
L 242.373232 233.158692 
L 242.795293 225.261689 
L 243.371569 209.79412 
L 244.313091 177.445249 
L 245.579275 135.538887 
L 246.188018 122.146747 
L 246.626313 116.716232 
L 246.918509 115.277015 
L 247.032141 115.202535 
L 247.064607 115.231365 
L 247.194472 115.568956 
L 247.405503 116.870116 
L 247.713932 120.403901 
L 248.135994 128.168817 
L 248.71227 143.391324 
L 249.637559 174.747355 
L 250.952443 217.998015 
L 251.569302 231.467099 
L 252.007596 236.880019 
L 252.299793 238.351364 
L 252.421541 238.444585 
L 252.454007 238.417577 
L 252.583872 238.091566 
L 252.794903 236.823595 
L 253.103333 233.368454 
L 253.525394 225.760585 
L 254.093554 211.052818 
L 254.994493 181.038532 
L 256.382426 135.648429 
L 256.999285 122.277164 
L 257.437579 116.847913 
L 257.737892 115.304633 
L 257.867757 115.202511 
L 257.892107 115.221534 
L 258.021972 115.526225 
L 258.233003 116.746215 
L 258.533316 119.992257 
L 258.947261 127.19307 
L 259.507304 141.25423 
L 260.36766 169.280354 
L 261.885458 218.589978 
L 262.502317 231.651869 
L 262.940611 236.907485 
L 263.240924 238.363642 
L 263.362673 238.442366 
L 263.395139 238.413295 
L 263.533121 238.055036 
L 263.752268 236.711188 
L 264.068814 233.135873 
L 264.498992 225.39026 
L 265.083385 210.357424 
L 266.008673 179.884268 
L 267.380373 135.790183 
L 268.005349 122.388342 
L 268.45176 116.890578 
L 268.76019 115.30797 
L 268.890055 115.200795 
L 268.922521 115.226044 
L 269.052386 115.534905 
L 269.263417 116.741232 
L 269.571846 120.035769 
L 269.985791 127.140729 
L 270.545834 140.967144 
L 271.398074 168.266176 
L 272.980804 219.032296 
L 273.589547 231.690415 
L 274.027841 236.890324 
L 274.328154 238.353595 
L 274.458019 238.441441 
L 274.482369 238.421108 
L 274.612234 238.116654 
L 274.823265 236.922459 
L 275.123578 233.764101 
L 275.537523 226.768302 
L 276.097566 213.089558 
L 276.941689 186.23929 
L 278.565002 134.304807 
L 279.173744 121.777773 
L 279.612039 116.673209 
L 279.904235 115.287939 
L 280.025984 115.201397 
L 280.05845 115.2273 
L 280.188315 115.536886 
L 280.399346 116.738264 
L 280.707776 120.013425 
L 281.12172 127.074775 
L 281.681763 140.825054 
L 282.534003 168.01933 
L 284.132967 219.212431 
L 284.741709 231.802348 
L 285.180004 236.946773 
L 285.4722 238.352582 
L 285.602065 238.441659 
L 285.626415 238.42147 
L 285.75628 238.117254 
L 285.967311 236.921283 
L 286.267624 233.754908 
L 286.681568 226.735787 
L 287.241612 213.001781 
L 288.085735 186.030392 
L 289.692815 134.362723 
L 290.301557 121.755469 
L 290.739852 116.640317 
L 291.032048 115.276064 
L 291.153797 115.20546 
L 291.178146 115.226658 
L 291.308011 115.53835 
L 291.519042 116.753992 
L 291.827472 120.074265 
L 292.241417 127.239169 
L 292.80146 141.193134 
L 293.653699 168.753819 
L 295.21208 219.162757 
L 295.820822 231.888408 
L 296.251 236.968725 
L 296.543197 238.365344 
L 296.664945 238.441511 
L 296.689295 238.42085 
L 296.81916 238.108757 
L 297.030191 236.880707 
L 297.330504 233.628416 
L 297.744449 226.420098 
L 298.304492 212.331337 
L 299.156731 184.477484 
L 300.690762 134.432026 
L 301.291388 121.761731 
L 301.721566 116.646808 
L 302.013763 115.268365 
L 302.127395 115.204458 
L 302.159861 115.235023 
L 302.297843 115.606748 
L 302.51699 116.996254 
L 302.833536 120.690875 
L 303.263714 128.695067 
L 303.848107 144.220735 
L 304.797745 176.441657 
L 306.072046 218.154524 
L 306.688905 231.593904 
L 307.1272 236.957987 
L 307.419396 238.373598 
L 307.533028 238.442237 
L 307.565494 238.412011 
L 307.695359 238.06984 
L 307.90639 236.763668 
L 308.21482 233.224123 
L 308.636881 225.444245 
L 309.213157 210.168092 
L 310.130329 178.921029 
L 311.445213 135.350692 
L 312.053956 122.005095 
L 312.484134 116.698457 
L 312.77633 115.270083 
L 312.889962 115.205208 
L 312.922428 115.237403 
L 313.06041 115.625433 
L 313.279557 117.071408 
L 313.596103 120.909605 
L 314.026281 129.207745 
L 314.618791 145.50013 
L 315.617128 180.323899 
L 316.777797 218.543696 
L 317.378423 231.729408 
L 317.808601 237.012449 
L 318.092681 238.379401 
L 318.198196 238.444017 
L 318.230663 238.415374 
L 318.360528 238.072726 
L 318.571558 236.743029 
L 318.879988 233.121511 
L 319.302049 225.151642 
L 319.878326 209.522247 
L 320.819847 176.826042 
L 322.061682 135.355273 
L 322.670425 121.89731 
L 323.100603 116.611985 
L 323.384682 115.260176 
L 323.490198 115.204367 
L 323.522664 115.236048 
L 323.652529 115.592325 
L 323.86356 116.948829 
L 324.171989 120.618182 
L 324.594051 128.664444 
L 325.170327 144.401677 
L 326.119965 177.518238 
L 327.345567 218.416954 
L 327.946193 231.700864 
L 328.376371 237.013777 
L 328.660451 238.381665 
L 328.765966 238.443085 
L 328.798432 238.413097 
L 328.928297 238.063449 
L 329.139328 236.717319 
L 329.447758 233.062576 
L 329.869819 225.036077 
L 330.446095 209.326668 
L 331.395734 176.25487 
L 332.621335 135.371622 
L 333.230078 121.917411 
L 333.660256 116.626736 
L 333.944336 115.264337 
L 334.049851 115.202785 
L 334.082317 115.232484 
L 334.212182 115.579774 
L 334.423213 116.917893 
L 334.731642 120.551545 
L 335.153704 128.532128 
L 335.72998 144.154074 
L 336.671502 176.771722 
L 337.913337 218.11291 
L 338.522079 231.581201 
L 338.952257 236.932052 
L 339.244453 238.373951 
L 339.358085 238.441342 
L 339.390552 238.40964 
L 339.528533 238.022761 
L 339.747681 236.576381 
L 340.064227 232.736105 
L 340.494405 224.440881 
L 341.086914 208.18058 
L 342.093368 173.206348 
L 343.254037 135.224432 
L 343.86278 121.947731 
L 344.292958 116.683421 
L 344.585154 115.269201 
L 344.698786 115.205132 
L 344.731252 115.236999 
L 344.869234 115.62067 
L 345.088381 117.048992 
L 345.404927 120.836058 
L 345.835106 129.013439 
L 346.427615 145.05181 
L 347.417836 179.062093 
L 348.610971 217.983195 
L 349.22783 231.466158 
L 349.666125 236.882236 
L 349.958321 238.352347 
L 350.08007 238.444299 
L 350.112536 238.416882 
L 350.242401 238.088947 
L 350.453432 236.816951 
L 350.761861 233.354269 
L 351.183923 225.734063 
L 351.760199 210.768307 
L 352.669255 180.402196 
L 354.040954 135.607188 
L 354.657813 122.255933 
L 355.096108 116.839771 
L 355.396421 115.303046 
L 355.526286 115.202856 
L 355.550636 115.222171 
L 355.680501 115.528019 
L 355.891531 116.748319 
L 356.191844 119.99108 
L 356.605789 127.179573 
L 357.165832 141.209861 
L 358.026188 169.166753 
L 359.552103 218.609553 
L 360.168962 231.630448 
L 360.607257 236.884127 
L 360.90757 238.355667 
L 361.029318 238.444825 
L 361.061784 238.418955 
L 361.191649 238.106837 
L 361.40268 236.89293 
L 361.71111 233.583743 
L 362.125055 226.456739 
L 362.693214 212.375786 
L 363.561687 184.467514 
L 365.103835 135.057928 
L 365.720694 122.139868 
L 366.167105 116.797958 
L 366.467418 115.30629 
L 366.597283 115.200629 
L 366.629749 115.225323 
L 366.759614 115.528185 
L 366.970645 116.711776 
L 367.279074 119.944534 
L 367.693019 126.917213 
L 368.253062 140.494442 
L 369.105302 167.360526 
L 370.736732 219.079319 
L 371.353591 231.712505 
L 371.800002 236.913715 
L 372.100315 238.35068 
L 372.23018 238.443391 
L 372.25453 238.425087 
L 372.384395 238.137453 
L 372.595425 236.992085 
L 372.895738 233.947906 
L 373.309683 227.18769 
L 373.869726 213.936484 
L 374.697616 188.343881 
L 376.434561 133.86049 
L 377.043304 121.704908 
L 377.481598 116.711892 
L 377.781911 115.295359 
L 377.911777 115.202028 
L 377.944243 115.227886 
L 378.082224 115.556908 
L 378.301372 116.803227 
L 378.609801 120.025336 
L 379.031863 127.045442 
L 379.600022 140.604929 
L 380.460378 167.239383 
L 382.116158 218.862417 
L 382.741134 231.532725 
L 383.187545 236.764316 
L 383.495974 238.31616 
L 383.642073 238.444722 
L 383.666422 238.428053 
L 383.796287 238.155583 
L 384.007318 237.057627 
L 384.307631 234.127018 
L 384.721576 227.600855 
L 385.273502 214.981541 
L 386.085159 190.634862 
L 387.960086 132.960482 
L 388.568828 121.304701 
L 389.007123 116.572767 
L 389.299319 115.28461 
L 389.429184 115.203815 
L 389.453534 115.222471 
L 389.591516 115.529453 
L 389.802547 116.656123 
L 390.110976 119.699085 
L 390.533038 126.39289 
L 391.093081 139.197496 
L 391.92097 163.881022 
L 393.755314 219.722829 
L 394.38029 231.811663 
L 394.834818 236.861194 
L 395.143247 238.321595 
L 395.297462 238.442044 
L 395.313695 238.431062 
L 395.44356 238.181622 
L 395.654591 237.169453 
L 395.954904 234.469555 
L 396.368849 228.481462 
L 396.928892 216.79968 
L 397.813598 192.955575 
L 398.47104 176.462578 
L 398.479156 176.533101 
L 398.487273 177.11342 
L 398.487273 177.11342 
" clip-path="url(#p7bad40d43d)" style="fill: none; stroke: #1f77b4; stroke-linecap: square"/>
   </g>
   <g id="line2d_2">
    <path d="M 73.832727 234.872391 
L 74.197973 228.806583 
L 74.7012 216.254952 
L 75.439807 191.463833 
L 77.184869 131.159086 
L 77.728679 120.091706 
L 78.110158 116.045465 
L 78.353655 115.203629 
L 78.45917 115.268816 
L 78.605268 115.788305 
L 78.832532 117.576368 
L 79.157195 122.130455 
L 79.603606 131.905052 
L 80.228582 151.055443 
L 82.631085 230.282858 
L 83.077497 236.60402 
L 83.37781 238.338836 
L 83.491441 238.447515 
L 83.532024 238.413007 
L 83.661889 238.043631 
L 83.87292 236.608514 
L 84.18135 232.703301 
L 84.603411 224.134422 
L 85.187804 207.172865 
L 86.226724 169.108853 
L 87.265645 134.11242 
L 87.841921 121.333721 
L 88.247749 116.426324 
L 88.515596 115.233855 
L 88.604878 115.207443 
L 88.637345 115.24399 
L 88.775326 115.673328 
L 88.994474 117.258734 
L 89.31102 121.446008 
L 89.741198 130.44734 
L 90.341824 148.225813 
L 91.518726 191.501479 
L 92.435898 221.170786 
L 92.995941 232.985886 
L 93.393653 237.446826 
L 93.653383 238.435938 
L 93.750782 238.40638 
L 93.758898 238.394041 
L 93.89688 237.952458 
L 94.116027 236.35962 
L 94.432573 232.188674 
L 94.870868 223.058868 
L 95.47961 205.12525 
L 96.705212 160.473137 
L 97.606151 131.984194 
L 98.166194 120.485722 
L 98.563906 116.162323 
L 98.823636 115.208909 
L 98.921034 115.239489 
L 98.937268 115.265175 
L 99.083366 115.760049 
L 99.31063 117.462443 
L 99.635292 121.79344 
L 100.081703 131.080596 
L 100.706679 149.289416 
L 102.151428 200.483414 
L 102.963085 223.999786 
L 103.506895 234.044131 
L 103.888373 237.684825 
L 104.13187 238.442599 
L 104.237386 238.387218 
L 104.383484 237.92895 
L 104.610748 236.347103 
L 104.93541 232.316811 
L 105.381821 223.655729 
L 105.998681 206.832399 
L 107.11065 169.030674 
L 108.190153 135.299581 
L 108.807013 122.249009 
L 109.253424 116.842335 
L 109.553737 115.317172 
L 109.691718 115.202126 
L 109.716068 115.220237 
L 109.845933 115.511001 
L 110.056964 116.675621 
L 110.357277 119.774131 
L 110.771222 126.650342 
L 111.331265 140.103415 
L 112.175388 166.541953 
L 113.839284 219.169547 
L 114.456143 231.741678 
L 114.902554 236.919116 
L 115.202867 238.350669 
L 115.332732 238.443544 
L 115.357082 238.42543 
L 115.486947 238.139607 
L 115.697978 236.999814 
L 115.998291 233.968117 
L 116.412235 227.230343 
L 116.964162 214.229772 
L 117.783935 188.9783 
L 119.553347 133.455592 
L 120.162089 121.419612 
L 120.600384 116.558487 
L 120.89258 115.269329 
L 121.014329 115.205994 
L 121.038678 115.226921 
L 121.17666 115.556742 
L 121.395807 116.813749 
L 121.704237 120.071643 
L 122.126298 127.180888 
L 122.694458 140.926956 
L 123.554814 167.927479 
L 125.178127 219.095382 
L 125.794986 231.704444 
L 126.241397 236.90833 
L 126.54171 238.349653 
L 126.671576 238.443581 
L 126.695925 238.425415 
L 126.82579 238.137873 
L 127.036821 236.98968 
L 127.337134 233.932783 
L 127.751079 227.133007 
L 128.303005 214.00316 
L 129.122779 188.498916 
L 130.86784 133.309196 
L 131.468466 121.353878 
L 131.898644 116.549903 
L 132.190841 115.261747 
L 132.304473 115.204725 
L 132.336939 115.234317 
L 132.474921 115.587322 
L 132.694068 116.899121 
L 133.010614 120.382273 
L 133.440792 127.934951 
L 134.017068 142.406548 
L 134.909891 171.254665 
L 136.387106 218.462935 
L 137.003965 231.466289 
L 137.450376 236.849211 
L 137.750689 238.344539 
L 137.880554 238.443758 
L 137.904904 238.425343 
L 138.034769 238.12982 
L 138.245799 236.94484 
L 138.546112 233.786209 
L 138.960057 226.760204 
L 139.5201 212.982847 
L 140.364223 185.888356 
L 141.963187 134.249427 
L 142.571929 121.625413 
L 143.002107 116.61693 
L 143.294304 115.267066 
L 143.407936 115.204174 
L 143.440402 115.233982 
L 143.578384 115.597322 
L 143.797531 116.956593 
L 144.114077 120.572901 
L 144.544255 128.414392 
L 145.128648 143.651005 
L 146.053936 174.546756 
L 147.401286 218.317627 
L 148.018146 231.591083 
L 148.45644 236.921475 
L 148.748637 238.35942 
L 148.870385 238.442622 
L 148.902851 238.413255 
L 149.032716 238.078912 
L 149.243747 236.800188 
L 149.552177 233.331706 
L 149.974238 225.700062 
L 150.542398 210.930502 
L 151.43522 181.018759 
L 152.83127 135.078029 
L 153.440012 121.925961 
L 153.87019 116.690168 
L 154.162386 115.272719 
L 154.276018 115.203706 
L 154.308485 115.23386 
L 154.43835 115.575907 
L 154.64938 116.882422 
L 154.95781 120.423649 
L 155.379871 128.207869 
L 155.956148 143.492754 
L 156.87332 174.755231 
L 158.188203 218.332022 
L 158.796946 231.668018 
L 159.227124 236.962146 
L 159.51932 238.379421 
L 159.632952 238.439455 
L 159.657302 238.41635 
L 159.787167 238.07895 
L 159.998198 236.766399 
L 160.306627 233.187434 
L 160.728689 225.302841 
L 161.304965 209.81783 
L 162.230254 177.92208 
L 163.512671 135.197108 
L 164.113297 121.966127 
L 164.543475 116.653724 
L 164.827555 115.270651 
L 164.941187 115.205553 
L 164.973653 115.238442 
L 165.111635 115.633144 
L 165.330782 117.101762 
L 165.647328 120.996821 
L 166.077506 129.409941 
L 166.670015 145.902372 
L 167.684586 181.621667 
L 168.812789 218.815486 
L 169.413415 231.953575 
L 169.835476 237.073528 
L 170.119556 238.394965 
L 170.225072 238.437641 
L 170.257538 238.401725 
L 170.39552 237.992047 
L 170.614667 236.493059 
L 170.931213 232.541945 
L 171.361391 224.03659 
L 171.9539 207.408705 
L 172.984704 170.933941 
L 174.080441 134.832835 
L 174.681067 121.676359 
L 175.103128 116.56025 
L 175.387208 115.248081 
L 175.484607 115.204215 
L 175.517073 115.235854 
L 175.646938 115.593323 
L 175.857969 116.956224 
L 176.166398 120.643805 
L 176.58846 128.728243 
L 177.164736 144.52993 
L 178.122491 178.031989 
L 179.331859 218.395808 
L 179.932485 231.693816 
L 180.362663 237.011246 
L 180.646743 238.381093 
L 180.752258 238.443282 
L 180.784725 238.413548 
L 180.91459 238.065055 
L 181.125621 236.721462 
L 181.43405 233.072648 
L 181.856111 225.060257 
L 182.432388 209.383612 
L 183.382026 176.391855 
L 184.615744 135.354986 
L 185.224487 121.947651 
L 185.654665 116.656499 
L 185.938744 115.27359 
L 186.052376 115.204163 
L 186.084843 115.23529 
L 186.214708 115.585828 
L 186.425738 116.920527 
L 186.734168 120.529204 
L 187.156229 128.437884 
L 187.732506 143.902408 
L 188.674027 176.204421 
L 189.940212 218.03193 
L 190.548954 231.422666 
L 190.987249 236.881242 
L 191.279445 238.355295 
L 191.401194 238.443175 
L 191.43366 238.41412 
L 191.563525 238.077373 
L 191.774556 236.783714 
L 192.082985 233.27484 
L 192.505047 225.570037 
L 193.081323 210.46974 
L 193.998495 179.635299 
L 195.337729 135.790672 
L 195.954588 122.34787 
L 196.392882 116.878554 
L 196.693195 115.312131 
L 196.82306 115.200801 
L 196.855526 115.226599 
L 196.985392 115.543869 
L 197.196422 116.784298 
L 197.504852 120.170143 
L 197.926913 127.632502 
L 198.495073 142.076282 
L 199.387895 171.356673 
L 200.832644 218.119084 
L 201.449503 231.318087 
L 201.895914 236.792707 
L 202.196227 238.331553 
L 202.326092 238.446454 
L 202.358559 238.423005 
L 202.488424 238.120883 
L 202.699454 236.924195 
L 202.999767 233.750916 
L 203.413712 226.719091 
L 203.973755 212.980449 
L 204.825995 185.784777 
L 206.416842 134.810841 
L 207.033701 121.986334 
L 207.471996 116.785298 
L 207.772308 115.302745 
L 207.902174 115.201456 
L 207.93464 115.227293 
L 208.064505 115.534945 
L 208.275536 116.72717 
L 208.583965 119.974769 
L 208.99791 126.972158 
L 209.557953 140.591907 
L 210.410193 167.535917 
L 212.033506 219.127957 
L 212.650365 231.782232 
L 213.08866 236.901645 
L 213.388973 238.350562 
L 213.518838 238.443059 
L 213.543187 238.424333 
L 213.673052 238.132353 
L 213.884083 236.972228 
L 214.184396 233.890335 
L 214.598341 227.046889 
L 215.158384 213.63431 
L 215.99439 187.478732 
L 217.682636 134.021714 
L 218.291379 121.700505 
L 218.729673 116.670247 
L 219.029986 115.278005 
L 219.151735 115.203531 
L 219.184201 115.231634 
L 219.322183 115.576041 
L 219.54133 116.866351 
L 219.857876 120.300979 
L 220.288054 127.755402 
L 220.86433 142.047124 
L 221.757153 170.576745 
L 223.258717 218.215036 
L 223.883693 231.330899 
L 224.330104 236.74043 
L 224.638534 238.324955 
L 224.776515 238.445112 
L 224.800865 238.428312 
L 224.93073 238.146319 
L 225.133644 237.060676 
L 225.433957 234.040378 
L 225.839786 227.425521 
L 226.391712 214.350611 
L 227.203369 189.106178 
L 228.97278 133.034604 
L 229.573406 121.16603 
L 230.003584 116.455124 
L 230.287664 115.252822 
L 230.401296 115.20863 
L 230.425646 115.231765 
L 230.563627 115.579943 
L 230.782775 116.88631 
L 231.099321 120.365927 
L 231.529499 127.920218 
L 232.105775 142.400676 
L 232.998597 171.262876 
L 234.467696 218.25779 
L 235.092671 231.462728 
L 235.539083 236.844634 
L 235.839396 238.342752 
L 235.969261 238.444269 
L 236.001727 238.417803 
L 236.131592 238.104743 
L 236.342623 236.893282 
L 236.651052 233.592735 
L 237.064997 226.476711 
L 237.62504 212.618284 
L 238.47728 185.21927 
L 240.051894 134.474516 
L 240.660636 121.791237 
L 241.098931 116.645 
L 241.391127 115.275112 
L 241.512876 115.206116 
L 241.537225 115.227924 
L 241.66709 115.544505 
L 241.878121 116.773989 
L 242.186551 120.127368 
L 242.600496 127.358598 
L 243.160539 141.432034 
L 244.020895 169.474125 
L 245.546809 219.067079 
L 246.155552 231.882515 
L 246.58573 236.98442 
L 246.877926 238.372081 
L 246.991558 238.443634 
L 247.024024 238.415668 
L 247.153889 238.088848 
L 247.36492 236.828803 
L 247.67335 233.401258 
L 248.087295 226.022554 
L 248.655454 211.451178 
L 249.532043 182.372328 
L 250.976792 134.9774 
L 251.585535 121.912275 
L 252.015713 116.700215 
L 252.307909 115.277681 
L 252.421541 115.201897 
L 252.454007 115.229626 
L 252.583872 115.559815 
L 252.794903 116.839895 
L 253.103333 120.327689 
L 253.517278 127.837916 
L 254.085437 142.655496 
L 254.97826 172.716313 
L 256.366192 218.595277 
L 256.974935 231.782263 
L 257.405113 237.000656 
L 257.689193 238.371226 
L 257.802825 238.442689 
L 257.835291 238.412803 
L 257.965156 238.069925 
L 258.176187 236.755686 
L 258.484616 233.189823 
L 258.906678 225.34999 
L 259.482954 209.96255 
L 260.408243 178.242822 
L 261.698777 135.363004 
L 262.307519 121.974538 
L 262.737697 116.671221 
L 263.021777 115.276743 
L 263.135409 115.203232 
L 263.167875 115.233324 
L 263.29774 115.580512 
L 263.508771 116.913412 
L 263.817201 120.530905 
L 264.239262 128.481072 
L 264.815538 144.066293 
L 265.748943 176.391118 
L 267.007011 218.367312 
L 267.607637 231.651685 
L 268.037815 236.986147 
L 268.321895 238.375022 
L 268.435527 238.440437 
L 268.467993 238.40743 
L 268.605975 238.011207 
L 268.825122 236.536893 
L 269.141668 232.62709 
L 269.571846 224.183918 
L 270.164356 207.639385 
L 271.187043 171.544871 
L 272.299013 134.868087 
L 272.899638 121.700987 
L 273.3217 116.571887 
L 273.60578 115.250316 
L 273.711295 115.208845 
L 273.743761 115.245267 
L 273.881743 115.657796 
L 274.10089 117.163558 
L 274.417436 121.128906 
L 274.847614 129.660394 
L 275.440124 146.331289 
L 276.479044 183.167436 
L 277.566664 218.969678 
L 278.159174 231.945986 
L 278.581235 237.07953 
L 278.865315 238.39737 
L 278.962714 238.441936 
L 278.99518 238.410386 
L 279.125045 238.052529 
L 279.336076 236.686466 
L 279.644505 232.988687 
L 280.066567 224.880379 
L 280.642843 209.03196 
L 281.600598 175.443868 
L 282.80185 135.267672 
L 283.402476 121.935919 
L 283.832654 116.617264 
L 284.116733 115.259632 
L 284.222249 115.204794 
L 284.254715 115.2371 
L 284.38458 115.597344 
L 284.595611 116.964973 
L 284.90404 120.659437 
L 285.326102 128.751914 
L 285.902378 144.559366 
L 286.860133 178.054159 
L 288.069501 218.393391 
L 288.670127 231.685234 
L 289.100305 237.004622 
L 289.384385 238.379234 
L 289.489901 238.443911 
L 289.522367 238.41502 
L 289.652232 238.070256 
L 289.863263 236.733886 
L 290.171692 233.097941 
L 290.593754 225.106451 
L 291.17003 209.46044 
L 292.119668 176.506423 
L 293.353386 135.456409 
L 293.962129 122.012752 
L 294.392307 116.687864 
L 294.684503 115.266141 
L 294.790018 115.201928 
L 294.822485 115.230315 
L 294.95235 115.570005 
L 295.163381 116.887709 
L 295.47181 120.473883 
L 295.893872 128.358638 
L 296.470148 143.807985 
L 297.403553 175.839567 
L 298.677854 218.043904 
L 299.286596 231.456053 
L 299.724891 236.907697 
L 300.017087 238.363573 
L 300.130719 238.444986 
L 300.163186 238.418177 
L 300.293051 238.088833 
L 300.504081 236.80153 
L 300.812511 233.288639 
L 301.234572 225.552401 
L 301.810849 210.366013 
L 302.728021 179.34004 
L 304.059137 135.565788 
L 304.675997 122.135372 
L 305.114291 116.747666 
L 305.406488 115.290538 
L 305.528236 115.202438 
L 305.560702 115.230723 
L 305.690567 115.561457 
L 305.901598 116.835708 
L 306.210028 120.296731 
L 306.632089 127.906145 
L 307.208365 142.845641 
L 308.117421 173.163913 
L 309.489121 217.942117 
L 310.10598 231.322171 
L 310.544274 236.770713 
L 310.844587 238.333432 
L 310.974452 238.445417 
L 311.006918 238.41997 
L 311.136784 238.104778 
L 311.347814 236.869687 
L 311.656244 233.494612 
L 312.070189 226.220513 
L 312.638348 211.856744 
L 313.514938 183.184766 
L 314.992153 135.274892 
L 315.609012 122.13967 
L 316.047306 116.812833 
L 316.347619 115.301275 
L 316.477484 115.20275 
L 316.501834 115.221767 
L 316.631699 115.522835 
L 316.84273 116.724317 
L 317.143043 119.918778 
L 317.556988 127.007119 
L 318.117031 140.865653 
L 318.96927 168.291301 
L 320.543884 219.038798 
L 321.152627 231.739655 
L 321.590921 236.930059 
L 321.883118 238.350389 
L 322.012983 238.44205 
L 322.037332 238.422096 
L 322.167197 238.117872 
L 322.378228 236.917697 
L 322.678541 233.737854 
L 323.092486 226.69035 
L 323.652529 212.912174 
L 324.496652 185.895584 
L 326.095616 134.491936 
L 326.704358 121.853265 
L 327.142653 116.695582 
L 327.434849 115.291203 
L 327.556598 115.200843 
L 327.589064 115.226145 
L 327.718929 115.535097 
L 327.92996 116.741419 
L 328.238389 120.036637 
L 328.652334 127.14632 
L 329.212377 140.990784 
L 330.064617 168.346341 
L 331.639231 219.007384 
L 332.247973 231.715804 
L 332.686268 236.919129 
L 332.986581 238.363644 
L 333.108329 238.442678 
L 333.140795 238.41414 
L 333.278777 238.060097 
L 333.497924 236.728743 
L 333.81447 233.181074 
L 334.244648 225.482534 
L 334.829041 210.509389 
L 335.746213 180.347911 
L 337.134146 135.624779 
L 337.759122 122.238219 
L 338.205533 116.796226 
L 338.505846 115.296457 
L 338.635711 115.204194 
L 338.660061 115.2245 
L 338.789926 115.533174 
L 339.000956 116.750149 
L 339.301269 119.975038 
L 339.715214 127.124848 
L 340.275257 141.105017 
L 341.127497 168.774384 
L 342.677761 219.139529 
L 343.286504 231.91469 
L 343.716682 236.995271 
L 344.008878 238.373821 
L 344.12251 238.443201 
L 344.154976 238.414763 
L 344.284841 238.086728 
L 344.495872 236.827054 
L 344.804302 233.405292 
L 345.226363 225.869732 
L 345.794523 211.270475 
L 346.679228 181.922895 
L 348.107744 135.139907 
L 348.716487 122.030951 
L 349.154781 116.699663 
L 349.446978 115.27848 
L 349.56061 115.20158 
L 349.593076 115.228823 
L 349.722941 115.556342 
L 349.933972 116.82969 
L 350.242401 120.302811 
L 350.656346 127.78618 
L 351.224506 142.55986 
L 352.109211 172.269419 
L 353.513377 218.660135 
L 354.12212 231.816119 
L 354.552298 237.015404 
L 354.836378 238.37453 
L 354.95001 238.441617 
L 354.982476 238.410497 
L 355.120458 238.029172 
L 355.339605 236.600611 
L 355.656151 232.800513 
L 356.086329 224.572534 
L 356.670722 208.644121 
L 357.64471 174.888899 
L 358.845962 135.22975 
L 359.454704 121.871397 
L 359.884882 116.614057 
L 360.168962 115.262391 
L 360.274477 115.203363 
L 360.306944 115.233732 
L 360.436809 115.583355 
L 360.647839 116.92487 
L 360.956269 120.565563 
L 361.37833 128.567236 
L 361.954607 144.252812 
L 362.896128 177.060887 
L 364.137963 218.60209 
L 364.738589 231.857152 
L 365.16065 237.041429 
L 365.44473 238.390436 
L 365.550246 238.439341 
L 365.582712 238.404868 
L 365.720694 237.998726 
L 365.939841 236.496329 
L 366.256387 232.519818 
L 366.686565 223.941395 
L 367.279074 207.151387 
L 368.317995 170.039023 
L 369.397498 134.334327 
L 369.990008 121.400075 
L 370.403952 116.456212 
L 370.679916 115.235175 
L 370.777315 115.21178 
L 370.801664 115.239296 
L 370.931529 115.611136 
L 371.14256 117.018128 
L 371.45099 120.815669 
L 371.873051 129.130641 
L 372.457444 145.617652 
L 373.447665 181.108597 
L 374.575868 219.051698 
L 375.168377 232.166571 
L 375.582322 237.177938 
L 375.858285 238.411624 
L 375.955684 238.433062 
L 375.980034 238.404533 
L 376.109899 238.023789 
L 376.320929 236.59003 
L 376.629359 232.727845 
L 377.05142 224.283507 
L 377.635813 207.570866 
L 378.650384 170.823216 
L 379.729887 134.457069 
L 380.31428 121.462384 
L 380.728225 116.438524 
L 380.996072 115.237581 
L 381.093471 115.211493 
L 381.11782 115.239328 
L 381.247685 115.619535 
L 381.458716 117.063649 
L 381.767146 120.964778 
L 382.189207 129.502081 
L 382.7736 146.393554 
L 383.804404 184.054311 
L 384.859557 219.613097 
L 385.435834 232.369374 
L 385.841662 237.251463 
L 386.109509 238.418473 
L 386.198791 238.434384 
L 386.231257 238.393741 
L 386.369239 237.94525 
L 386.588386 236.323204 
L 386.904932 232.068398 
L 387.33511 222.946869 
L 387.935736 204.954602 
L 389.136988 160.363092 
L 390.02981 131.568439 
L 390.581737 120.131961 
L 390.963216 116.038144 
L 391.206713 115.201459 
L 391.304111 115.262938 
L 391.442093 115.737996 
L 391.66124 117.418881 
L 391.977786 121.793173 
L 392.416081 131.344261 
L 393.024823 150.065604 
L 395.476027 231.629625 
L 395.889971 237.080623 
L 396.157818 238.401436 
L 396.2471 238.441245 
L 396.279567 238.405596 
L 396.409432 237.995071 
L 396.620462 236.415456 
L 396.920775 232.251256 
L 397.33472 223.011303 
L 397.886647 205.110194 
L 398.47104 178.925509 
L 398.487273 177.11342 
L 398.487273 177.11342 
" clip-path="url(#p7bad40d43d)" style="fill: none; stroke: #ff7f0e; stroke-linecap: square"/>
   </g>
   <g id="line2d_3">
    <path d="M 73.832727 176.823009 
L 75.805053 132.014028 
L 76.292047 126.225717 
L 76.61671 124.483133 
L 76.779041 124.309616 
L 76.795274 124.318694 
L 76.917023 124.54204 
L 77.11182 125.47505 
L 77.3959 128.114312 
L 77.777379 134.005634 
L 78.280606 145.5918 
L 78.97863 167.385852 
L 81.15387 239.214474 
L 81.632748 247.056628 
L 81.95741 249.430403 
L 82.103509 249.662381 
L 82.135975 249.64171 
L 82.249607 249.360728 
L 82.436288 248.190846 
L 82.712251 244.850616 
L 83.09373 237.151711 
L 83.596957 221.988046 
L 84.303098 193.201932 
L 86.445872 101.209571 
L 86.940982 90.254557 
L 87.281878 86.693559 
L 87.460443 86.223321 
L 87.476676 86.229186 
L 87.574074 86.435644 
L 87.744522 87.505213 
L 88.004252 90.862 
L 88.361381 98.794065 
L 88.840259 114.985538 
L 89.505817 145.997394 
L 91.940787 267.62054 
L 92.403432 277.982623 
L 92.711861 280.938451 
L 92.841726 281.188663 
L 92.874192 281.157942 
L 92.987824 280.755734 
L 93.174505 279.100724 
L 93.458585 274.239119 
L 93.84818 263.167854 
L 94.367641 241.347206 
L 95.122481 199.054099 
L 96.989292 90.895083 
L 97.541218 72.132293 
L 97.930813 65.159113 
L 98.182427 63.66402 
L 98.239243 63.661103 
L 98.271709 63.715045 
L 98.393458 64.2775 
L 98.596372 66.47319 
L 98.896685 72.553034 
L 99.302513 85.83633 
L 99.85444 111.994684 
L 100.698563 164.155403 
L 102.21636 257.850302 
L 102.816986 281.635538 
L 103.239048 290.913239 
L 103.523128 293.325602 
L 103.604293 293.432356 
L 103.652993 293.371557 
L 103.774741 292.810309 
L 103.977655 290.58397 
L 104.277968 284.395063 
L 104.683797 270.876133 
L 105.24384 243.867943 
L 106.104196 189.959888 
L 107.565178 99.168356 
L 108.17392 74.563675 
L 108.604098 64.78992 
L 108.896295 62.134289 
L 108.993694 61.984355 
L 109.034276 62.030728 
L 109.147908 62.500477 
L 109.342706 64.462578 
L 109.634902 70.08064 
L 110.032614 82.572886 
L 110.576424 107.443547 
L 111.404314 156.951609 
L 112.962695 250.367493 
L 113.563321 273.44999 
L 113.993499 282.739385 
L 114.285695 285.259923 
L 114.383094 285.403375 
L 114.423677 285.360218 
L 114.537309 284.918325 
L 114.732106 283.069926 
L 115.024303 277.782011 
L 115.422014 266.047573 
L 115.973941 242.355075 
L 116.82618 194.644383 
L 118.311512 111.879855 
L 118.920254 89.729232 
L 119.358549 80.622802 
L 119.658862 78.021899 
L 119.772494 77.826455 
L 119.813077 77.861583 
L 119.926709 78.25246 
L 120.121506 79.915137 
L 120.413703 84.692698 
L 120.811414 95.300521 
L 121.363341 116.690525 
L 122.223697 160.081911 
L 123.684679 233.182135 
L 124.301538 253.436787 
L 124.747949 261.804735 
L 125.048262 264.170279 
L 125.170011 264.366332 
L 125.210594 264.334012 
L 125.324225 263.98511 
L 125.519023 262.511178 
L 125.811219 258.289449 
L 126.217048 248.708313 
L 126.768974 229.814745 
L 127.645564 190.950925 
L 129.065963 128.844529 
L 129.690938 110.795027 
L 130.137349 103.393283 
L 130.445779 101.214709 
L 130.575644 101.028953 
L 130.60811 101.050105 
L 130.721742 101.335817 
L 130.91654 102.582763 
L 131.20062 106.063123 
L 131.598331 114.016166 
L 132.142141 129.832905 
L 132.994381 162.115592 
L 134.487829 218.436671 
L 135.104688 233.691492 
L 135.551099 240.045076 
L 135.859529 241.914583 
L 135.99751 242.071262 
L 136.029977 242.047203 
L 136.151725 241.751557 
L 136.354639 240.547075 
L 136.654952 237.186096 
L 137.068897 229.699536 
L 137.637057 214.916928 
L 138.554229 184.290608 
L 139.893462 140.780701 
L 140.518438 127.186284 
L 140.972966 121.472261 
L 141.281395 119.805063 
L 141.427494 119.65364 
L 141.451843 119.668286 
L 141.573592 119.911596 
L 141.776506 120.940318 
L 142.068702 123.74967 
L 142.474531 130.072717 
L 143.034574 142.726787 
L 143.903046 168.201268 
L 145.380261 211.164554 
L 145.99712 222.940075 
L 146.443532 227.802529 
L 146.743845 229.160462 
L 146.881826 229.25464 
L 146.906176 229.236559 
L 147.044158 228.938146 
L 147.255188 227.843485 
L 147.563618 224.895119 
L 147.985679 218.445409 
L 148.561956 205.829549 
L 149.479128 180.056293 
L 150.842711 142.624195 
L 151.45957 131.356436 
L 151.897864 126.769375 
L 152.198177 125.461261 
L 152.336159 125.377607 
L 152.360509 125.396872 
L 152.49849 125.698702 
L 152.717638 126.846943 
L 153.026067 129.820734 
L 153.448129 136.30223 
L 154.024405 149.001347 
L 154.917227 174.35908 
L 156.337626 214.077558 
L 156.946369 225.245853 
L 157.376547 229.684718 
L 157.668743 230.867996 
L 157.790492 230.907315 
L 157.814841 230.88288 
L 157.952823 230.54085 
L 158.17197 229.28914 
L 158.488516 225.976593 
L 158.918694 218.791492 
L 159.494971 205.005612 
L 160.39591 177.267298 
L 161.791959 135.022785 
L 162.400701 122.966106 
L 162.822763 118.311096 
L 163.106843 117.102487 
L 163.212358 117.063408 
L 163.244824 117.096488 
L 163.382806 117.474394 
L 163.601953 118.86249 
L 163.918499 122.54506 
L 164.340561 130.370935 
L 164.908721 145.457601 
L 165.78531 175.529558 
L 167.230059 224.612464 
L 167.830684 237.85439 
L 168.252746 242.99112 
L 168.528709 244.256359 
L 168.626108 244.292429 
L 168.658574 244.256394 
L 168.796556 243.834541 
L 169.015703 242.272116 
L 169.324133 238.248298 
L 169.746194 229.468742 
L 170.314354 212.473306 
L 171.182826 178.847052 
L 172.643808 122.781514 
L 173.236318 108.077064 
L 173.658379 102.286433 
L 173.934343 100.865405 
L 174.023625 100.821012 
L 174.064208 100.868582 
L 174.194073 101.305905 
L 174.405103 102.941057 
L 174.713533 107.355709 
L 175.127478 116.86084 
L 175.687521 135.39518 
L 176.53976 172.051964 
L 178.041325 236.469461 
L 178.633835 252.816098 
L 179.055896 259.24234 
L 179.331859 260.818702 
L 179.413025 260.873498 
L 179.453608 260.830643 
L 179.575356 260.420699 
L 179.77827 258.802023 
L 180.078583 254.29581 
L 180.484412 244.408818 
L 181.036338 224.847491 
L 181.864228 186.397826 
L 183.446959 112.391938 
L 184.039468 94.874445 
L 184.453413 88.164521 
L 184.729376 86.497206 
L 184.810542 86.447237 
L 184.851125 86.497803 
L 184.98099 86.998158 
L 185.19202 88.906331 
L 185.50045 94.083286 
L 185.914395 105.225882 
L 186.482554 127.240384 
L 187.36726 171.595113 
L 188.779543 241.365574 
L 189.388285 260.988689 
L 189.818463 268.709332 
L 190.102543 270.696872 
L 190.191825 270.794581 
L 190.240525 270.741058 
L 190.362273 270.277567 
L 190.565187 268.464541 
L 190.8655 263.44626 
L 191.271329 252.498243 
L 191.823255 230.98643 
L 192.675495 187.783035 
L 194.168943 112.387027 
L 194.769569 92.762521 
L 195.199747 84.883657 
L 195.483827 82.812486 
L 195.581226 82.691925 
L 195.621808 82.73089 
L 195.743557 83.162089 
L 195.946471 84.920937 
L 196.238667 89.683782 
L 196.644496 100.397273 
L 197.196422 121.535554 
L 198.048662 164.013608 
L 199.533993 237.693205 
L 200.142736 257.290212 
L 200.572914 265.097246 
L 200.86511 267.248433 
L 200.970626 267.382924 
L 201.011209 267.343712 
L 201.132957 266.923873 
L 201.335871 265.22595 
L 201.636184 260.486087 
L 202.050129 249.892747 
L 202.610172 229.21602 
L 203.502994 186.712357 
L 204.874694 122.705787 
L 205.491553 103.640977 
L 205.937964 95.78582 
L 206.238277 93.601477 
L 206.360026 93.442711 
L 206.392492 93.47119 
L 206.514241 93.842338 
L 206.717155 95.378455 
L 207.009351 99.54464 
L 207.41518 108.885986 
L 207.975223 127.50592 
L 208.868045 165.817621 
L 210.239745 223.398336 
L 210.856604 240.558737 
L 211.303015 247.691563 
L 211.611444 249.771926 
L 211.74131 249.938302 
L 211.773776 249.914361 
L 211.895524 249.5926 
L 212.098438 248.252954 
L 212.398751 244.491031 
L 212.812696 236.098566 
L 213.380856 219.552841 
L 214.330494 184.219462 
L 215.580446 139.591909 
L 216.205421 124.584555 
L 216.659949 118.271573 
L 216.976495 116.379185 
L 217.122593 116.209466 
L 217.146943 116.224144 
L 217.268691 116.480088 
L 217.463489 117.513111 
L 217.755685 120.447577 
L 218.161514 127.055147 
L 218.729673 140.392797 
L 219.679312 168.915488 
L 220.921146 204.640307 
L 221.554238 216.898159 
L 222.008766 222.016123 
L 222.333429 223.625552 
L 222.503877 223.78234 
L 222.52011 223.772813 
L 222.649975 223.545339 
L 222.861006 222.613242 
L 223.169435 220.05796 
L 223.599613 214.365241 
L 224.208356 202.96014 
L 225.507006 173.050799 
L 226.399829 155.396301 
L 226.992338 147.613687 
L 227.422516 144.442524 
L 227.722829 143.52771 
L 227.893277 143.479816 
L 228.047492 143.723221 
L 228.282872 144.600681 
L 228.623768 146.882369 
L 229.094529 151.733657 
L 229.792554 161.526837 
L 231.748646 190.158256 
L 232.324922 195.120049 
L 232.7551 197.187858 
L 233.06353 197.785085 
L 233.258327 197.790501 
L 233.453125 197.520092 
L 233.729088 196.692935 
L 234.118684 194.731899 
L 234.678727 190.621884 
L 235.717647 180.957282 
L 236.780917 171.864026 
L 237.41401 168.183663 
L 237.892887 166.540694 
L 238.250016 165.976034 
L 238.509746 165.90611 
L 238.753243 166.083801 
L 239.069789 166.633498 
L 239.508084 167.896105 
L 240.173642 170.584245 
L 242.032336 178.417399 
L 242.632962 179.908742 
L 243.111839 180.567125 
L 243.509551 180.77003 
L 243.874797 180.712292 
L 244.304975 180.397747 
L 244.9056 179.647326 
L 246.983441 176.825301 
L 247.62465 176.428093 
L 248.249626 176.299587 
L 249.012583 176.384758 
L 251.504369 176.821658 
L 253.55786 176.960778 
L 254.580548 177.329335 
L 256.01718 177.84615 
L 256.601573 177.806552 
L 257.121033 177.546231 
L 257.664843 177.009917 
L 258.306052 176.040017 
L 259.320623 174.027142 
L 260.294611 172.268847 
L 260.797838 171.766436 
L 261.163083 171.680455 
L 261.479629 171.832637 
L 261.828642 172.26864 
L 262.250703 173.188477 
L 262.77828 174.928037 
L 263.484421 178.113279 
L 265.546029 187.939672 
L 265.984324 188.885029 
L 266.27652 189.092356 
L 266.495667 189.00133 
L 266.747281 188.621953 
L 267.08006 187.656063 
L 267.510238 185.628016 
L 268.062165 181.836754 
L 268.849472 174.685358 
L 270.537718 159.021593 
L 271.065294 156.195998 
L 271.422423 155.292749 
L 271.641571 155.194859 
L 271.820135 155.385518 
L 272.063632 156.046655 
L 272.396411 157.703877 
L 272.834706 161.176899 
L 273.410982 167.733847 
L 274.271338 180.430198 
L 275.716087 201.597859 
L 276.284247 206.837955 
L 276.673842 208.712089 
L 276.917339 209.074255 
L 277.055321 208.989042 
L 277.242002 208.532437 
L 277.509848 207.187177 
L 277.875094 204.060853 
L 278.362088 197.724144 
L 279.01953 185.93904 
L 281.495082 138.27583 
L 281.92526 134.777976 
L 282.20934 133.857333 
L 282.347322 133.831648 
L 282.363555 133.847056 
L 282.51777 134.188236 
L 282.745034 135.335047 
L 283.069696 138.289965 
L 283.499874 144.475138 
L 284.084267 156.470094 
L 284.993323 180.456872 
L 286.332556 214.963844 
L 286.925065 224.918431 
L 287.33901 228.725192 
L 287.606857 229.628325 
L 287.720489 229.625536 
L 287.736722 229.606159 
L 287.88282 229.217542 
L 288.110084 227.847324 
L 288.434747 224.29923 
L 288.873041 216.708966 
L 289.465551 202.078289 
L 290.415189 172.153938 
L 291.673257 134.006167 
L 292.273883 121.982558 
L 292.695944 117.304872 
L 292.971908 116.141705 
L 293.077423 116.108186 
L 293.101773 116.133052 
L 293.239754 116.505298 
L 293.458902 117.902567 
L 293.767331 121.514426 
L 294.189393 129.398288 
L 294.757552 144.631942 
L 295.642258 175.223677 
L 297.038307 222.715736 
L 297.638933 236.068378 
L 298.060995 241.314051 
L 298.345075 242.692882 
L 298.45059 242.748917 
L 298.483056 242.716101 
L 298.612921 242.349219 
L 298.823952 240.952862 
L 299.132382 237.167714 
L 299.546326 229.02624 
L 300.114486 212.955193 
L 300.999192 180.628174 
L 302.395241 130.438299 
L 303.003984 116.102228 
L 303.434162 110.429722 
L 303.718242 108.938841 
L 303.831874 108.86018 
L 303.86434 108.892307 
L 303.994205 109.263172 
L 304.205236 110.687074 
L 304.513665 114.551552 
L 304.935727 123.045969 
L 305.512003 139.710564 
L 306.437291 174.056514 
L 307.744059 221.130875 
L 308.360918 235.882113 
L 308.799212 241.802971 
L 309.091409 243.410929 
L 309.213157 243.513175 
L 309.245624 243.483874 
L 309.375489 243.129188 
L 309.586519 241.749769 
L 309.894949 237.996254 
L 310.31701 229.753679 
L 310.893287 213.633337 
L 311.834808 179.983309 
L 313.109109 136.142963 
L 313.725968 121.999415 
L 314.164263 116.260883 
L 314.464576 114.615769 
L 314.594441 114.494403 
L 314.626907 114.519765 
L 314.756772 114.843013 
L 314.967803 116.116721 
L 315.276232 119.591507 
L 315.698294 127.214253 
L 316.282687 142.313973 
L 317.264791 174.591723 
L 318.466043 212.133888 
L 319.082902 225.124025 
L 319.529313 230.544444 
L 319.837743 232.138399 
L 319.983841 232.266942 
L 320.008191 232.249282 
L 320.138056 231.967707 
L 320.349087 230.845879 
L 320.657516 227.780009 
L 321.079578 221.064037 
L 321.66397 207.807309 
L 322.670425 178.920215 
L 323.831094 147.541181 
L 324.456069 136.142854 
L 324.90248 131.447935 
L 325.219026 130.024913 
L 325.373241 129.913882 
L 325.389474 129.924281 
L 325.527456 130.181071 
L 325.738487 131.147652 
L 326.046916 133.757944 
L 326.477094 139.562399 
L 327.07772 151.07912 
L 328.181573 177.552395 
L 329.22861 200.492111 
L 329.845469 209.620651 
L 330.291881 213.413882 
L 330.60031 214.539235 
L 330.778875 214.626428 
L 330.924973 214.393871 
L 331.14412 213.544576 
L 331.460666 211.307415 
L 331.898961 206.433777 
L 332.51582 196.808945 
L 333.879403 170.823576 
L 334.747876 156.824628 
L 335.324152 150.682203 
L 335.746213 148.18334 
L 336.03841 147.501919 
L 336.208858 147.500865 
L 336.379305 147.786561 
L 336.630919 148.715691 
L 336.988048 151.007977 
L 337.483159 155.829822 
L 338.205533 165.337754 
L 340.194092 192.580894 
L 340.770368 197.201554 
L 341.192429 199.050382 
L 341.484626 199.527649 
L 341.66319 199.496021 
L 341.866104 199.168334 
L 342.150184 198.207371 
L 342.539779 196.006909 
L 343.075473 191.565064 
L 343.895246 182.642636 
L 345.534793 164.634662 
L 346.151652 160.258321 
L 346.606179 158.406384 
L 346.922725 157.869468 
L 347.12564 157.857002 
L 347.328554 158.101885 
L 347.604517 158.83812 
L 347.985996 160.580329 
L 348.497339 164.082969 
L 349.22783 170.823625 
L 351.386837 191.728481 
L 351.930647 194.625199 
L 352.312126 195.661075 
L 352.571856 195.857085 
L 352.758537 195.736404 
L 352.993917 195.271435 
L 353.31858 194.066453 
L 353.748758 191.514281 
L 354.325034 186.603683 
L 355.18539 177.081495 
L 356.760004 159.596599 
L 357.352513 155.426619 
L 357.766458 153.86556 
L 358.034305 153.529831 
L 358.204753 153.606287 
L 358.407667 153.997297 
L 358.691747 155.094558 
L 359.073226 157.557193 
L 359.576453 162.414873 
L 360.266361 171.481675 
L 362.644515 204.777549 
L 363.099043 207.674292 
L 363.407472 208.484432 
L 363.57792 208.501241 
L 363.740251 208.223576 
L 363.975632 207.305894 
L 364.308411 204.971499 
L 364.746706 200.114711 
L 365.331098 190.861163 
L 366.215804 172.760986 
L 367.64432 143.866922 
L 368.220596 136.413141 
L 368.618308 133.655331 
L 368.869921 133.059284 
L 368.999786 133.118011 
L 369.162118 133.549404 
L 369.405615 134.948263 
L 369.746511 138.410395 
L 370.192922 145.471868 
L 370.793548 158.882617 
L 371.751303 186.084406 
L 372.993137 219.999505 
L 373.585647 230.602347 
L 373.991475 234.524139 
L 374.251205 235.406194 
L 374.35672 235.383812 
L 374.372954 235.360552 
L 374.519052 234.911912 
L 374.746316 233.354674 
L 375.070978 229.329535 
L 375.501156 220.876432 
L 376.077432 204.674302 
L 376.954022 172.838758 
L 378.382537 121.565067 
L 378.96693 108.094517 
L 379.372759 103.028573 
L 379.632489 101.875917 
L 379.713654 101.864786 
L 379.746121 101.907479 
L 379.884102 102.390966 
L 380.103249 104.166376 
L 380.411679 108.740169 
L 380.83374 118.758418 
L 381.393784 137.951793 
L 382.237906 175.648939 
L 383.771938 244.237181 
L 384.35633 260.722519 
L 384.762159 266.868585 
L 385.021889 268.240757 
L 385.094938 268.252635 
L 385.127404 268.20465 
L 385.257269 267.68382 
L 385.4683 265.714515 
L 385.77673 260.364967 
L 386.190674 248.785799 
L 386.742601 226.458227 
L 387.570491 182.7189 
L 389.145105 99.015682 
L 389.729497 79.466247 
L 390.135326 72.109511 
L 390.403172 70.374824 
L 390.468105 70.341161 
L 390.508688 70.39748 
L 390.630436 70.924279 
L 390.83335 72.993994 
L 391.133663 78.753898 
L 391.539492 91.410223 
L 392.083302 116.090437 
L 392.894958 164.475976 
L 394.534505 263.432574 
L 395.110781 285.111792 
L 395.516609 293.431137 
L 395.784456 295.431678 
L 395.849389 295.485457 
L 395.898088 295.414546 
L 396.019836 294.819617 
L 396.222751 292.506012 
L 396.523064 286.10046 
L 396.928892 272.084867 
L 397.480818 244.409331 
L 398.308708 190.126323 
L 398.487273 177.403832 
L 398.487273 177.403832 
" clip-path="url(#p7bad40d43d)" style="fill: none; stroke: #3265a4; stroke-width: 2; stroke-linecap: square"/>
   </g>
   <g id="line2d_4">
    <path d="M 73.832727 135.436129 
L 80.017551 111.343993 
L 83.272294 99.570914 
L 85.950761 90.685879 
L 88.296449 83.649253 
L 90.39864 78.021424 
L 92.314149 73.505887 
L 94.075444 69.903018 
L 95.706874 67.055744 
L 97.216556 64.852577 
L 98.620722 63.181936 
L 99.935605 61.950716 
L 101.17744 61.083809 
L 102.354342 60.525976 
L 103.490661 60.22825 
L 104.610748 60.162767 
L 105.73895 60.320983 
L 106.899619 60.712551 
L 108.108988 61.35959 
L 109.399522 62.308532 
L 110.787455 63.612293 
L 112.305253 65.353113 
L 113.977265 67.621409 
L 115.844076 70.542849 
L 117.970616 74.30005 
L 120.494868 79.23372 
L 123.806428 86.233276 
L 132.929448 105.78096 
L 135.599799 110.827544 
L 137.872437 114.664884 
L 139.901579 117.668562 
L 141.74404 120.010491 
L 143.440402 121.817687 
L 145.023132 123.186961 
L 146.508464 124.184909 
L 147.920747 124.871348 
L 149.276213 125.287872 
L 150.60733 125.466403 
L 151.930331 125.419823 
L 153.269564 125.149383 
L 154.657497 124.638483 
L 156.110362 123.86158 
L 157.65251 122.779493 
L 159.324523 121.326523 
L 161.15075 119.436265 
L 163.196125 116.988413 
L 165.558046 113.801092 
L 168.496243 109.439548 
L 173.877527 100.954735 
L 177.822178 94.951586 
L 180.500645 91.267122 
L 182.740817 88.550793 
L 184.705026 86.506866 
L 186.474438 84.975549 
L 188.097751 83.855122 
L 189.615549 83.071653 
L 191.044065 82.579878 
L 192.415765 82.340605 
L 193.746881 82.332796 
L 195.069882 82.548341 
L 196.400999 82.992603 
L 197.764582 83.685396 
L 199.184981 84.662321 
L 200.670313 85.959761 
L 202.244927 87.637349 
L 203.925056 89.760147 
L 205.73505 92.414945 
L 207.699259 95.701666 
L 209.858266 99.760754 
L 212.277003 104.798232 
L 215.069102 111.147585 
L 218.551109 119.651908 
L 231.545732 151.961694 
L 234.281015 157.845913 
L 236.667285 162.469194 
L 238.810059 166.150696 
L 240.766152 169.081883 
L 242.568029 171.392496 
L 244.240042 173.185292 
L 245.806539 174.547213 
L 247.283754 175.543258 
L 248.68792 176.226969 
L 250.035271 176.640362 
L 251.350154 176.81463 
L 252.656922 176.764808 
L 253.979922 176.490431 
L 255.335388 175.979653 
L 256.747671 175.206088 
L 258.241119 174.128594 
L 259.831966 172.699633 
L 261.544562 170.854592 
L 263.411372 168.506658 
L 265.464864 165.555939 
L 267.778085 161.828395 
L 270.456552 157.073268 
L 273.816811 150.626335 
L 286.162108 126.485206 
L 288.824342 122.02234 
L 291.137564 118.563339 
L 293.215405 115.842488 
L 295.114681 113.709706 
L 296.875976 112.056863 
L 298.523639 110.808637 
L 300.073903 109.906717 
L 301.551118 109.298952 
L 302.979634 108.94798 
L 304.3838 108.831037 
L 305.77985 108.938345 
L 307.192132 109.271479 
L 308.644998 109.845697 
L 310.162796 110.689644 
L 311.761759 111.838389 
L 313.474355 113.349203 
L 315.333048 115.294494 
L 317.378423 117.768182 
L 319.675412 120.907385 
L 322.378228 124.995388 
L 325.925168 130.795476 
L 334.366397 144.747669 
L 337.052981 148.667471 
L 339.293153 151.557892 
L 341.257362 153.743036 
L 343.026773 155.389569 
L 344.64197 156.597435 
L 346.135418 157.443504 
L 347.531468 157.984829 
L 348.862585 158.265851 
L 350.145002 158.311619 
L 351.411187 158.134128 
L 352.677371 157.730709 
L 353.967905 157.08357 
L 355.307139 156.157888 
L 356.703188 154.916649 
L 358.180403 153.297454 
L 359.746901 151.241174 
L 361.418913 148.669818 
L 363.220791 145.478716 
L 365.168767 141.563941 
L 367.303424 136.760113 
L 369.681578 130.842099 
L 372.408744 123.43478 
L 375.744653 113.693805 
L 381.296385 96.66595 
L 386.263724 81.718842 
L 389.356135 73.100836 
L 391.904737 66.631337 
L 394.128676 61.572232 
L 396.109119 57.599269 
L 397.910997 54.466799 
L 398.487273 53.568 
L 398.487273 53.568 
" clip-path="url(#p7bad40d43d)" style="fill: none; stroke: #3265a4; stroke-width: 3; stroke-linecap: square"/>
   </g>
  </g>
 </g>
 <defs>
  <clipPath id="p7bad40d43d">
   <rect x="57.6" y="41.472" width="357.12" height="266.112"/>
  </clipPath>
 </defs>
</svg>
